<?xml version="1.0" encoding="UTF-8" standalone="no"?>
<svg
   xmlns:dc="http://purl.org/dc/elements/1.1/"
   xmlns:cc="http://creativecommons.org/ns#"
   xmlns:rdf="http://www.w3.org/1999/02/22-rdf-syntax-ns#"
   xmlns:svg="http://www.w3.org/2000/svg"
   xmlns="http://www.w3.org/2000/svg"
   xmlns:sodipodi="http://sodipodi.sourceforge.net/DTD/sodipodi-0.dtd"
   xmlns:inkscape="http://www.inkscape.org/namespaces/inkscape"
   version="1.1"
   id="svg22"
   width="562"
   height="292"
   viewBox="0 0 562 292"
   sodipodi:docname="Logo.svg"
   inkscape:version="1.0.2-2 (e86c870879, 2021-01-15)"
   inkscape:export-filename="C:\Users\edmundo\Documents\Rodrigo\Projetos\Invenira.Portal\path94.png"
   inkscape:export-xdpi="384"
   inkscape:export-ydpi="384">
  <metadata
     id="metadata28">
    <rdf:RDF>
      <cc:Work
         rdf:about="">
        <dc:format>image/svg+xml</dc:format>
        <dc:type
           rdf:resource="http://purl.org/dc/dcmitype/StillImage" />
        <dc:title></dc:title>
      </cc:Work>
    </rdf:RDF>
  </metadata>
  <defs
     id="defs26" />
  <sodipodi:namedview
     pagecolor="#ffffff"
     bordercolor="#666666"
     borderopacity="1"
     objecttolerance="10"
     gridtolerance="10"
     guidetolerance="10"
     inkscape:pageopacity="0"
     inkscape:pageshadow="2"
     inkscape:window-width="1920"
     inkscape:window-height="1001"
     id="namedview24"
     showgrid="false"
     inkscape:zoom="2.0099268"
     inkscape:cx="266.20943"
     inkscape:cy="107.23299"
     inkscape:window-x="-9"
     inkscape:window-y="41"
     inkscape:window-maximized="1"
     inkscape:current-layer="g30" />
  <g
     inkscape:groupmode="layer"
     inkscape:label="Image"
     id="g30">
    <path
       style="fill:#e5007e;fill-opacity:1"
       d="m 362,286.72737 c -1.375,-0.68374 -3.32328,-2.92443 -4.32952,-4.97931 -5.22062,-10.66133 8.58967,-19.62996 16.57952,-10.76701 7.63701,8.47154 -1.99111,20.84766 -12.25,15.74632 z M 216,255.64195 C 201.76801,251.37797 193.97568,242.92048 190.9927,228.5 c -5.58991,-27.02297 12.41571,-51.1859 36.69045,-49.23736 17.07479,1.3706 26.87468,12.89677 28.07437,33.01976 l 0.52359,8.7824 -26.75093,-0.2824 -26.75092,-0.2824 0.55515,4.68161 c 2.19716,18.52849 22.69765,26.80177 45.1056,18.20304 0.87586,-0.3361 1.54235,0.70781 1.99608,3.1264 0.37465,1.99704 0.90272,4.20829 1.17348,4.9139 1.40208,3.65374 -26.47196,6.95467 -35.60957,4.217 z m 26.65462,-49.14515 c -3.13688,-22.88597 -30.21911,-24.03785 -38.11362,-1.62107 -0.84755,2.40665 -1.541,4.76915 -1.541,5.25 0,0.48085 9.06117,0.87427 20.13592,0.87427 h 20.13593 z M 0,203.5 V 151 H 6.5 13 V 203.5 256 H 6.5 0 Z m 38,15 V 181 h 6 6 v 5.5 c 0,6.55147 0.04173,6.56645 4.51096,1.61955 10.218461,-11.31062 29.950231,-11.78129 40.127087,-0.95718 C 101.83777,194.82001 103,201.07751 103,232.18366 V 256 H 96 89 V 231.94282 C 89,196.2253 84.900048,187.84149 68.699888,190.432 54.735151,192.66505 52,199.41572 52,231.64922 V 256 h -7 -7 z m 102.54148,34.25 c -0.74605,-1.7875 -6.84618,-17.65 -13.55585,-35.25 -6.70966,-17.6 -12.59015,-33.0125 -13.06775,-34.25 L 113.0495,181 h 7.26663 7.26663 l 4.31136,12.25 c 2.37124,6.7375 7.16447,20.56614 10.65162,30.73031 3.48715,10.16417 6.55366,17.81417 6.81447,17 0.26081,-0.81417 4.96407,-14.53031 10.45169,-30.48031 l 9.97748,-29 7.20391,-0.2958 c 4.12252,-0.16927 7.0548,0.0996 6.85531,0.62851 -0.19173,0.50837 -6.83606,17.40398 -14.76518,37.5458 L 154.66684,256 h -6.38445 -6.38444 z M 273,218.5 V 181 h 6 6 v 5.5 c 0,6.55147 0.0417,6.56645 4.51096,1.61955 10.21846,-11.31062 29.95023,-11.78129 40.12709,-0.95718 C 336.83777,194.82001 338,201.07751 338,232.18366 V 256 h -7 -7 v -24.3185 c 0,-28.00672 -0.77882,-32.52409 -6.46859,-37.51978 -6.67202,-5.85811 -17.58426,-4.95502 -24.57293,2.03364 -5.6122,5.6122 -5.95848,7.642 -5.95848,34.92676 V 256 h -7 -7 z m 87,-15 V 151 h 6.5 6.5 V 203.5 256 H 366.5 360 Z M 148.5,120.87008 c -10.76181,-8.05241 -13.93273,-13.23741 -16.15741,-26.420127 -0.72776,-4.312494 2.22402,-13.629596 5.70627,-18.011432 C 142.12281,71.312122 140.88777,67 135.34557,67 c -3.36478,0 -9.6086,-8.36444 -9.15788,-12.268222 0.39492,-3.420464 -1.24562,-11.05022 -2.74138,-12.749551 -0.73478,-0.834775 -1.58419,-2.92676 -1.88758,-4.648856 -0.30339,-1.722095 -1.90322,-6.143545 -3.55517,-9.825444 C 112.67938,15.641345 114.62647,8 122.97437,8 c 3.99253,0 14.20729,3.866883 15.42668,5.839899 0.32393,0.524129 2.50371,1.948544 4.84396,3.165365 7.89923,4.107241 22.62896,17.597954 32.89952,30.132122 8.12997,9.921786 11.85757,12.332998 13.88069,8.978763 L 191,54.5 l 0.97478,1.616149 c 1.58612,2.629708 5.71366,1.074233 9.24659,-3.484596 C 212.98405,37.453188 237.61657,15 242.50549,15 c 0.23982,0 2.45627,-1.423991 4.92544,-3.164424 14.8816,-10.489517 23.43302,-2.3571078 16.47151,15.664424 -1.69967,4.4 -3.34253,9.125 -3.65081,10.5 -0.30828,1.375 -1.12277,3.4 -1.80997,4.5 -1.34984,2.160673 -2.94613,9.978572 -2.58003,12.635761 0.60857,4.41694 -6.15325,11.711918 -11.37164,12.268289 -3.17105,0.338088 -5.92681,3.512265 -3.73999,4.307853 0.6875,0.25012 1.25,1.003989 1.25,1.675264 0,0.671274 1.51679,2.690627 3.37064,4.48745 4.32042,4.187517 5.23287,10.467471 3.12306,21.494475 -2.02844,10.601688 -3.23851,12.317038 -14.8203,21.008728 L 228.84681,124 222.6734,123.9682 c -6.80776,-0.0351 -7.5421,-0.43615 -12.80765,-6.99524 -7.85651,-9.78654 -13.14978,-20.845159 -13.62873,-28.47296 -0.49901,-7.947065 -1.50861,-9.825566 -3.73327,-6.946253 L 191,83.5 189.49625,81.553747 c -2.24094,-2.900389 -3.34952,-0.982214 -4.10018,7.094538 -0.83791,9.015611 -7.56164,22.838565 -14.74302,30.309405 L 165.8061,124 l -6.65305,-0.0685 c -5.77329,-0.0594 -7.18199,-0.46426 -10.65305,-3.06144 z"
       id="path94" />
    <path
       style="fill:#f29200;fill-opacity:1"
       d="m 67.48163,290.65375 c 1.0406,-0.65965 0.767009,-1.45432 -1.25,-3.63072 -2.929663,-3.16116 -3.320661,-6.61282 -1.010749,-8.92273 1.73491,-1.73492 6.428571,-2.15213 6.428571,-0.57144 0,0.55 -1.094676,1 -2.432612,1 -1.492909,0 -2.66055,0.71817 -3.022675,1.85913 -0.915402,2.88417 0.428851,5.14087 3.062276,5.14087 1.316156,0 2.393011,0.45 2.393011,1 0,0.55 -0.632871,1 -1.40638,1 -0.914051,0 -1.223291,0.70014 -0.883369,2 0.385828,1.47541 0.0334,1.99598 -1.34362,1.98469 -1.402236,-0.0115 -1.535201,-0.22541 -0.534453,-0.8598 z m 148.16782,-6.47271 v -7.34782 l 3.22057,-0.0916 c 4.0559,-0.11532 5.77943,1.29183 5.77943,4.71853 0,3.83918 -2.22266,6.50522 -4.85046,5.81804 -1.7596,-0.46011 -2.14954,-0.12556 -2.14954,1.84429 0,1.32351 -0.45,2.40638 -1,2.40638 -0.57594,0 -1,-3.11594 -1,-7.34782 z m 6.5,-2.16588 c 0,-2.31277 -0.44799,-2.9863 -1.9863,-2.9863 -2.07927,0 -3.10726,2.51083 -2.1013,5.13232 1.04496,2.72314 4.0876,1.12572 4.0876,-2.14602 z M 5.649452,280.02886 c 0,-4.33333 0.422222,-7.5 1,-7.5 0.577778,0 1,3.16667 1,7.5 0,4.33333 -0.422222,7.5 -1,7.5 -0.577778,0 -1,-3.16667 -1,-7.5 z m 5,2.15218 v -5.34782 l 3.22057,-0.0916 c 4.468555,-0.12702 5.77943,1.3268 5.77943,6.40968 0,5.62121 -1.787499,5.7252 -2.192502,0.12756 -0.251847,-3.48083 -0.669458,-4.25 -2.307498,-4.25 -1.63804,0 -2.055651,0.76917 -2.307498,4.25 -0.442714,6.11885 -2.192502,5.24271 -2.192502,-1.09782 z m 12,4.41424 c 0,-0.58652 0.9,-1.06642 2,-1.06642 1.1,0 2,-0.43417 2,-0.96481 0,-0.53065 -0.9,-1.44648 -2,-2.03519 -1.1,-0.5887 -2,-1.92421 -2,-2.9678 0,-2.23093 3.70956,-3.72264 5.300663,-2.13153 0.799116,0.79911 0.498533,1.09933 -1.100663,1.09933 -2.769821,0 -2.842669,1.58569 -0.139316,3.03249 3.052754,1.63378 2.203938,5.37954 -1.310684,5.78393 -1.5125,0.17403 -2.75,-0.16347 -2.75,-0.75 z m 9.666667,0.26691 c -0.366667,-0.36665 -0.666667,-2.30165 -0.666667,-4.3 0,-1.99832 -0.399255,-4.06082 -0.887234,-4.58333 -0.528264,-0.56563 -0.12367,-1.72883 1,-2.87497 1.665654,-1.69895 1.887234,-1.7283 1.887234,-0.24999 0,0.92123 0.675,1.67496 1.5,1.67496 0.825,0 1.5,0.45 1.5,1 0,0.55 -0.675,1 -1.5,1 -1.047619,0 -1.5,1.05557 -1.5,3.5 0,2.44444 0.452381,3.5 1.5,3.5 0.825,0 1.5,0.45 1.5,1 0,1.11717 -3.295963,1.3707 -4.333333,0.33333 z M 38.000006,286 c -0.86082,-2.24326 0.291397,-4.27925 2.627908,-4.64358 2.860997,-0.4461 3.046349,-2.25301 0.271538,-2.64711 -2.952748,-0.41935 -2.912364,-2.18045 0.05,-2.18045 3.3582,0 4.7,1.86652 4.7,6.53797 v 4.13797 l -3.542458,0.13317 C 39.816076,287.42407 38.36509,286.9514 38.000006,286 Z m 5.649446,-2.04446 c 0,-0.93124 -0.68037,-1.44138 -1.667134,-1.25 -2.508769,0.48655 -2.853244,2.82332 -0.416199,2.82332 1.228337,0 2.083333,-0.64569 2.083333,-1.57332 z m 5,-4.42668 c 0,-4.66667 0.416667,-8 1,-8 0.583333,0 1,3.33333 1,8 0,4.66667 -0.416667,8 -1,8 -0.583333,0 -1,-3.33333 -1,-8 z m 5.25,7.31671 c -2.597496,-1.00444 -1.329488,-4.23892 2,-5.10168 3.9767,-1.03046 4.227093,-2.60271 0.483045,-3.03308 -3.21369,-0.36942 -2.693697,-2.18195 0.625972,-2.18195 3.299474,0 4.640983,1.88986 4.640983,6.53797 v 4.13797 l -3.25,0.0621 c -1.7875,0.0341 -3.8125,-0.15545 -4.5,-0.4213 z m 5.291119,-2.38324 c 0.362533,-0.58659 0.423003,-1.30268 0.134377,-1.59131 -0.785257,-0.78524 -4.675496,0.65023 -4.675496,1.72523 0,1.28769 3.730511,1.17767 4.541119,-0.13392 z m 14.453733,2.05534 c -1.964899,-1.2249 -0.203977,-4.23124 2.908805,-4.96607 3.179862,-0.75065 3.076752,-2.46751 -0.170612,-2.8408 -3.21369,-0.36941 -2.693697,-2.18194 0.625972,-2.18194 3.299474,0 4.640983,1.88986 4.640983,6.53797 v 4.13797 l -3.255148,0.12237 c -1.790332,0.0673 -3.927832,-0.29697 -4.75,-0.8095 z m 5.546267,-2.05534 c 0.362533,-0.58659 0.423003,-1.30268 0.134377,-1.59131 -0.785257,-0.78524 -4.675496,0.65023 -4.675496,1.72523 0,1.28769 3.730511,1.17767 4.541119,-0.13392 z m 6.03031,1.4951 c -3.198576,-3.19856 -0.933123,-9.42857 3.428571,-9.42857 2.56744,0 5,2.67582 5,5.5 0,2.82419 -2.43256,5.5 -5,5.5 -1.021429,0 -2.564286,-0.70713 -3.428571,-1.57143 z m 5.883858,-2.28769 c 0.844003,-2.65922 -0.364398,-5.14088 -2.503259,-5.14088 -2.417648,0 -3.280371,1.55564 -2.527119,4.55685 0.735167,2.92912 4.159874,3.32675 5.030378,0.58403 z m 9.544711,-3.64088 v -7.5 h 3.37756 c 4.49795,0 6.34814,2.23906 4.93776,5.97558 -0.61321,1.62458 -0.69961,3.38814 -0.20429,4.16983 1.07761,1.70062 1.14791,4.85459 0.10821,4.85459 -0.42942,0 -1.29033,-1.35 -1.91314,-3 -0.6228,-1.65 -1.84646,-3 -2.71924,-3 -1.09651,0 -1.58686,0.92701 -1.58686,3 0,1.65 -0.45,3 -1,3 -0.57778,0 -1,-3.16667 -1,-7.5 z m 6.5,-3 c 0,-1.31272 -0.77318,-2.1098 -2.25,-2.31955 -1.84568,-0.26213 -2.25,0.1547 -2.25,2.31955 0,2.16486 0.40432,2.58168 2.25,2.31955 1.47682,-0.20974 2.25,-1.00682 2.25,-2.31955 z m 6.07143,8.92857 c -2.01523,-2.01523 -2.01523,-5.84191 0,-7.85714 2.9069,-2.90689 7.42857,-1.30693 7.42857,2.62857 0,1.38737 -0.79513,1.8 -3.46862,1.8 -2.67237,0 -3.33648,0.34434 -2.89301,1.5 0.31659,0.825 1.65246,1.5 2.96862,1.5 1.31615,0 2.39301,0.45 2.39301,1 0,1.5807 -4.69366,1.16348 -6.42857,-0.57143 z m 4.92857,-6.42857 c -0.33992,-0.55 -1.26648,-1 -2.05902,-1 -0.79254,0 -1.44098,0.45 -1.44098,1 0,0.55 0.92656,1 2.05902,1 1.13246,0 1.7809,-0.45 1.44098,-1 z m 6.16667,7.33333 c -0.36667,-0.36665 -0.66667,-2.35416 -0.66667,-4.41666 0,-2.0625 -0.5625,-4.01249 -1.25,-4.33334 -1,-0.46666 -1,-0.7 0,-1.16666 0.6875,-0.32083 1.25,-1.22084 1.25,-2 0,-0.77917 0.45,-1.41667 1,-1.41667 0.55,0 1,0.675 1,1.5 0,0.825 0.7875,1.51432 1.75,1.5318 l 1.75,0.0318 -1.75,1.32844 c -1.86433,1.41524 -2.47482,7.60796 -0.75,7.60796 0.55,0 1,0.45 1,1 0,1.12473 -2.31086,1.35582 -3.33333,0.33333 z m 6.33333,-4.83333 c 0,-3.02499 0.45,-5.5 1,-5.5 0.55,0 1,2.47501 1,5.5 0,3.025 -0.45,5.5 -1,5.5 -0.55,0 -1,-2.475 -1,-5.5 z m 5.57143,3.92857 c -2.10734,-2.10733 -1.98701,-5.7425 0.25731,-7.77358 2.00035,-1.81029 6.17126,-2.25297 6.17126,-0.65499 0,0.55 -1.11643,1 -2.48095,1 -1.79696,0 -2.65,0.67357 -3.09414,2.44316 -0.80241,3.19706 0.13282,4.55684 3.13411,4.55684 1.34254,0 2.44098,0.45 2.44098,1 0,1.5807 -4.69366,1.16348 -6.42857,-0.57143 z m 9.59198,0.33484 c -1.3859,-1.3859 -1.57545,-9.76341 -0.22091,-9.76341 0.51838,0 1.08088,1.91251 1.25,4.25 0.25185,3.48084 0.66946,4.25 2.3075,4.25 1.63804,0 2.05565,-0.76916 2.3075,-4.25 0.44234,-6.1137 2.1925,-5.24523 2.1925,1.08797 v 5.33797 l -3.33659,0.12544 c -1.83513,0.069 -3.86013,-0.3981 -4.5,-1.03797 z m 10.83659,-6.76341 c 0,-4.66667 0.41667,-8 1,-8 0.58333,0 1,3.33333 1,8 0,4.66667 -0.41667,8 -1,8 -0.58333,0 -1,-3.33333 -1,-8 z m 4.63128,7.29796 c -1.64622,-1.64623 -0.40326,-4.18179 2.55559,-5.21326 3.29152,-1.14742 3.00959,-2.51539 -0.68687,-3.33288 l -2,-0.44229 1.88592,-0.81392 c 3.09561,-1.33596 5.08391,0.75549 5.41218,5.69298 l 0.2981,4.48373 -3.41682,0.12846 c -1.87925,0.0706 -3.7009,-0.15563 -4.0481,-0.50282 z m 5.36872,-2.87128 c 0,-0.93124 -0.68037,-1.44138 -1.66713,-1.25 -2.50877,0.48655 -2.85325,2.82332 -0.4162,2.82332 1.22833,0 2.08333,-0.64569 2.08333,-1.57332 z m 5,-1.80168 v -5.375 h 2.5 c 2.90272,0 3.04718,0.34569 1,2.39286 -0.825,0.825 -1.5,3.04285 -1.5,4.92857 0,1.88571 -0.45,3.42857 -1,3.42857 -0.55,0 -1,-2.41875 -1,-5.375 z m 11.57892,3.125 c 4.76921,-15.03545 6.02881,-15.85057 9.21351,-5.9624 1.21416,3.76986 2.20757,7.15987 2.20757,7.53335 0,1.54119 -1.91228,0.53078 -2.5,-1.32095 -0.4368,-1.37623 -1.51303,-2 -3.45076,-2 -1.97497,0 -2.97218,0.59731 -3.33899,2 -0.28766,1.10001 -1.04546,2 -1.68402,2 -0.7488,0 -0.90762,-0.79883 -0.44731,-2.25 z m 7.02807,-5.33179 c -0.33385,-0.86998 -0.60699,-2.02154 -0.60699,-2.55901 0,-1.62992 -1.72251,-0.0283 -2.28567,2.12522 -0.39956,1.5279 -0.0399,2.01558 1.48628,2.01558 1.42509,0 1.83601,-0.46218 1.40638,-1.58179 z m 7.05968,6.91512 c -0.36667,-0.36665 -0.66667,-2.30165 -0.66667,-4.3 0,-1.99832 -0.54,-4.17332 -1.2,-4.83333 -0.93333,-0.93333 -0.93333,-1.2 0,-1.2 0.66,0 1.2,-0.675 1.2,-1.5 0,-0.825 0.45,-1.5 1,-1.5 0.55,0 1,0.675 1,1.5 0,0.825 0.675,1.5 1.5,1.5 0.825,0 1.5,0.45 1.5,1 0,0.55 -0.675,1 -1.5,1 -1.04762,0 -1.5,1.05557 -1.5,3.5 0,2.44444 0.45238,3.5 1.5,3.5 0.825,0 1.5,0.45 1.5,1 0,1.11717 -3.29596,1.3707 -4.33333,0.33333 z m 6.90476,-0.90476 c -3.19858,-3.19856 -0.93312,-9.42857 3.42857,-9.42857 2.56744,0 5,2.67582 5,5.5 0,2.82419 -2.43256,5.5 -5,5.5 -1.02143,0 -2.56429,-0.70713 -3.42857,-1.57143 z m 5.92857,-3.92857 c 0,-2.29602 -0.49811,-3.07107 -2.12272,-3.30286 -2.40824,-0.34362 -3.75239,2.04565 -2.81406,5.00204 1.03865,3.2725 4.93678,1.93082 4.93678,-1.69918 z m 17.5,0 c 0,-3.02499 0.45,-5.5 1,-5.5 0.55,0 1,2.47501 1,5.5 0,3.025 -0.45,5.5 -1,5.5 -0.55,0 -1,-2.475 -1,-5.5 z m 5.57143,3.92857 c -2.10734,-2.10733 -1.98701,-5.7425 0.25731,-7.77358 2.00035,-1.81029 6.17126,-2.25297 6.17126,-0.65499 0,0.55 -1.09468,1 -2.43261,1 -1.49291,0 -2.66055,0.71817 -3.02268,1.85913 -0.9154,2.88418 0.42885,5.14087 3.06228,5.14087 1.31615,0 2.39301,0.45 2.39301,1 0,1.5807 -4.69366,1.16348 -6.42857,-0.57143 z M 242,286.00003 c -0.86082,-2.24326 0.2914,-4.27925 2.62791,-4.64358 2.80688,-0.43766 2.70662,-2.17718 -0.16944,-2.93991 l -2.30902,-0.61237 1.88592,-0.79681 c 3.09888,-1.30926 5.0848,0.78598 5.41218,5.71009 l 0.2981,4.48373 -3.59056,0.13499 C 243.82072,287.42397 242.36703,286.95646 242,286 Z m 5.43175,-2.31664 c 0.28658,-0.86063 -0.19425,-1.221 -1.33427,-1 -0.98026,0.19002 -1.98391,0.95098 -2.23033,1.691 -0.28658,0.86063 0.19425,1.221 1.33427,1 0.98026,-0.19002 1.98391,-0.95098 2.23033,-1.691 z m 10.2177,-3.65453 c 0,-4.33333 0.42222,-7.5 1,-7.5 0.57778,0 1,3.16667 1,7.5 0,4.33333 -0.42222,7.5 -1,7.5 -0.57778,0 -1,-3.16667 -1,-7.5 z m 5,2.15218 v -5.34782 l 3.22057,-0.0916 c 4.46855,-0.12705 5.77943,1.32677 5.77943,6.40965 0,5.62121 -1.7875,5.7252 -2.1925,0.12756 -0.25185,-3.48083 -0.66946,-4.25 -2.3075,-4.25 -1.63804,0 -2.05565,0.76917 -2.3075,4.25 -0.44271,6.11885 -2.1925,5.2427 -2.1925,-1.09782 z m 13.35289,3.68098 c -0.35649,-1.00824 -1.26264,-3.36475 -2.01365,-5.2367 -0.75102,-1.87195 -1.16453,-3.60451 -0.9189,-3.85014 0.94307,-0.94306 2.45328,0.90179 3.08218,3.76515 0.36101,1.6437 1.03488,2.98853 1.49748,2.98853 0.4626,0 1.13647,-1.34483 1.49748,-2.98853 0.6348,-2.89023 2.14088,-4.70644 3.10406,-3.74326 0.75186,0.75185 -3.21827,10.10403 -4.46584,10.51989 -0.62406,0.20802 -1.42632,-0.44671 -1.78281,-1.45494 z m 9.21854,0.0954 c -3.14556,-3.14556 -0.94651,-9.42857 3.3,-9.42857 2.2394,0 4.12857,1.92185 4.12857,4.2 0,1.39845 -0.79938,1.8 -3.58333,1.8 -4.23169,0 -4.30537,2.31734 -0.0896,2.81642 1.47008,0.17403 2.67288,0.73653 2.67288,1.25 0,1.52858 -4.73162,1.0591 -6.42857,-0.63785 z m 4.92857,-6.42856 c -0.33992,-0.55 -1.23992,-1 -2,-1 -0.76008,0 -1.66008,0.45 -2,1 -0.35191,0.5694 0.50929,1 2,1 1.49071,0 2.35191,-0.4306 2,-1 z m 4.5,2.65218 v -5.34782 l 3.22057,-0.0916 c 4.46855,-0.12705 5.77943,1.32677 5.77943,6.40965 0,5.62121 -1.7875,5.7252 -2.1925,0.12756 -0.25185,-3.48083 -0.66946,-4.25 -2.3075,-4.25 -1.63804,0 -2.05565,0.76917 -2.3075,4.25 -0.44271,6.11885 -2.1925,5.2427 -2.1925,-1.09782 z m 12.66667,4.68115 c -0.36667,-0.36665 -0.66667,-2.35416 -0.66667,-4.41666 0,-2.0625 -0.5625,-4.01249 -1.25,-4.33334 -1,-0.46666 -1,-0.7 0,-1.16666 0.6875,-0.32083 1.25,-1.22084 1.25,-2 0,-0.77917 0.45,-1.41667 1,-1.41667 0.55,0 1,0.675 1,1.5 0,0.825 0.675,1.5 1.5,1.5 0.825,0 1.5,0.45 1.5,1 0,0.55 -0.675,1 -1.5,1 -2.16099,0 -1.96627,5.92557 0.25,7.60796 l 1.75,1.32844 -2.08333,0.0318 c -1.14584,0.0175 -2.38334,-0.26819 -2.75,-0.63486 z m 6.33333,-4.83333 c 0,-3.02499 0.45,-5.5 1,-5.5 0.55,0 1,2.47501 1,5.5 0,3.025 -0.45,5.5 -1,5.5 -0.55,0 -1,-2.475 -1,-5.5 z m 6.63251,2.1629 c -2.43967,-5.83896 -2.8319,-7.6629 -1.64788,-7.6629 0.61568,0 1.59002,1.35001 2.16521,3 0.5752,1.65 1.40777,3 1.85016,3 0.44239,0 1.27496,-1.35 1.85016,-3 0.57519,-1.64999 1.51738,-3 2.09374,-3 0.61028,0 0.21457,2.19263 -0.94747,5.25 -1.09748,2.8875 -1.99565,5.3625 -1.99593,5.5 -0.003,1.58495 -2.29274,-0.51366 -3.36799,-3.0871 z M 329,286 c -0.86082,-2.24326 0.2914,-4.27925 2.62791,-4.64358 2.861,-0.4461 3.04635,-2.25301 0.27154,-2.64711 -2.95275,-0.41935 -2.91236,-2.18045 0.05,-2.18045 3.3582,0 4.7,1.86652 4.7,6.53797 v 4.13797 l -3.54246,0.13317 C 330.81607,287.42407 329.36509,286.9514 329,286 Z m 5.43175,-2.31664 c 0.28658,-0.86063 -0.19425,-1.221 -1.33427,-1 -0.98026,0.19002 -1.98391,0.95098 -2.23033,1.691 -0.28658,0.86063 0.19425,1.221 1.33427,1 0.98026,-0.19002 1.98391,-0.95098 2.23033,-1.691 z M 74.649452,274.46917 c 0,-0.39231 1.35,-0.91145 3,-1.15361 1.65,-0.24217 3,-0.11933 3,0.273 0,0.39232 -1.35,0.91145 -3,1.15362 -1.65,0.24217 -3,0.11932 -3,-0.27301 z m 55.596558,0.21592 c -0.34605,-0.55991 -0.1419,-1.31919 0.45366,-1.68727 1.53748,-0.95021 2.52947,0.35135 1.24598,1.63484 -0.71818,0.71818 -1.27752,0.73543 -1.69964,0.0524 z m 77.04181,-0.65623 c 0.31659,-0.825 1.25756,-1.5 2.09106,-1.5 1.23369,0 1.284,0.27889 0.27057,1.5 -0.68469,0.825 -1.62567,1.5 -2.09106,1.5 -0.46539,0 -0.58715,-0.675 -0.27057,-1.5 z m 19.95819,0.65623 c -0.34605,-0.55991 -0.1419,-1.31919 0.45366,-1.68727 1.53748,-0.95021 2.52947,0.35135 1.24598,1.63484 -0.71818,0.71818 -1.27752,0.73543 -1.69964,0.0524 z m 86.8724,-0.20645 c -0.95021,-1.53748 0.35135,-2.52947 1.63484,-1.24598 0.71818,0.71819 0.73543,1.27752 0.0524,1.69964 -0.55992,0.34605 -1.31919,0.1419 -1.68727,-0.45366 z m 84.53104,-70.93073 v -51.98095 l 2.75,-0.76657 c 5.92543,-1.65173 37.40203,-0.89292 42.9278,1.03486 23.96662,8.36126 25.67654,42.77543 2.5722,51.76834 -2.93314,1.14167 -2.90153,1.22833 1.51367,4.15018 5.4563,3.61081 8.4905,10.19048 13.03898,28.27509 2.2133,8.8 4.33629,16.7875 4.71775,17.75 0.62141,1.56792 -0.0485,1.75 -6.43816,1.75 h -7.13174 l -1.05996,-2.75 c -0.58297,-1.5125 -2.38358,-8.15 -4.00134,-14.75 -5.93367,-24.20757 -8.42776,-26.92119 -25.88195,-28.16013 l -9.00725,-0.63935 v 23.14974 23.14974 h -7 -7 z m 35.77108,-5.54371 c 11.18832,-3.32257 17.0672,-12.93479 14.26826,-23.32923 -2.73642,-10.16228 -10.71556,-14.41187 -26.1653,-13.93528 l -9.37404,0.28917 -0.27159,19.25 -0.2716,19.25001 h 8.3401 c 4.58705,0 10.65042,-0.68611 13.47417,-1.52467 z m 40.22892,57.20924 c 0,-0.22166 7.25222,-21.72888 16.11605,-47.7938 8.86382,-26.06493 16.77764,-49.54522 17.58626,-52.17844 l 1.47022,-4.78768 8.56571,0.28768 8.5657,0.28767 3.82593,10.99999 c 2.10426,6.05 9.87164,28.775 17.26085,50.50001 7.38921,21.72499 13.75495,40.30742 14.14609,41.29429 l 0.71116,1.79429 -7.79373,-0.29428 -7.79373,-0.2943 -5.41359,-16.25 -5.41359,-16.25 h -18.35409 -18.3541 l -5.34163,16.25 -5.34162,16.25 -7.22095,0.29381 c -3.97152,0.16158 -7.22094,0.11243 -7.22094,-0.10924 z m 58,-44.88831 c 0,-0.66206 -2.677,-9.32456 -5.94888,-19.25 -3.27188,-9.92544 -6.58581,-20.07126 -7.36427,-22.54626 l -1.4154,-4.5 -1.18012,4.5 c -0.64906,2.475 -4.04647,13.1625 -7.54979,23.75 l -6.36968,19.25 h 14.91407 c 10.95891,0 14.91407,-0.31924 14.91407,-1.20374 z M 142.09357,125.00387 c -3.33073,-2.39389 -8.06662,-6.51759 -10.52419,-9.16376 l -4.46831,-4.81124 -1.38057,-7.86913 c -2.39046,-13.625406 1.70775,-24.95995 11.25734,-31.134771 3.4144,-2.20777 2.44834,-2.966967 -5.05892,-3.975647 -7.34816,-0.987303 -10.16809,-4.984971 -13.2221,-18.744275 -1.2545,-5.6519 -4.25782,-14.873676 -6.67405,-20.492835 -6.41968,-14.929535 -7.13285,-18.77787 -4.55845,-24.597728 l 2.07267,-4.685619 h 5.36589 c 12.68705,0 43.03805,21.149858 61.2498,42.681447 l 9.74337,11.519498 1.46647,-3.027932 c 2.50274,-5.167587 6.5556,-5.141953 8.74088,0.05529 l 1.23154,2.928978 9.70307,-11.49979 c 18.1077,-21.460721 48.46733,-42.657491 61.0973,-42.657491 h 5.6266 l 2.08063,4.703618 2.08064,4.703617 -1.2593,5.046382 c -0.69261,2.775511 -3.17666,9.546383 -5.5201,15.046383 -2.34344,5.5 -5.29949,14.725 -6.569,20.5 -3.03304,13.797269 -5.81998,17.508022 -13.90436,18.513322 -7.63486,0.949402 -7.68725,1.101974 -1.93877,5.64589 7.86953,6.2205 11.04627,16.263718 8.93098,28.235113 -1.91553,10.84086 -5.64476,15.80863 -17.99983,23.97787 l -5.48665,3.6278 h -7.0267 -7.0267 l -5.05238,-3.40247 c -4.49418,-3.02655 -5.87374,-4.93238 -12.48665,-17.24999 l -7.43427,-13.847535 -0.5,10.704615 c -0.83657,17.91026 -5.09426,17.41025 -6,-0.70462 l -0.5,-9.999995 -7.29703,13.755115 -7.29703,13.7551 -5.18962,3.49489 -5.18962,3.49489 -7.51335,-0.0862 -7.51335,-0.0862 -6.05588,-4.35254 z m 18.7366,-1.975 c -0.35457,-5.55252 -1.93646,-12.5 -2.84616,-12.5 -0.79332,0 -14.3447,7.52535 -16.75318,9.30337 l -1.91861,1.41639 5.41861,3.66892 c 4.84172,3.27831 6.00418,3.63924 10.91862,3.39012 l 5.5,-0.27881 z m 8.51346,0.50089 2.19418,-1.70091 -2.44418,-3.59694 c -1.3443,-1.97831 -2.44642,-3.95831 -2.44915,-4.39999 -0.003,-0.44168 -1.09307,-2.15305 -2.42298,-3.80305 -2.95504,-3.66627 -4.49163,-1.57666 -2.67424,3.63671 0.60621,1.73896 1.10219,5.58542 1.10219,8.5477 v 5.38595 l 2.25,-1.18428 c 1.2375,-0.65135 3.23738,-1.94969 4.44418,-2.88519 z m 69.5266,0.85743 c 5.34251,-3.42828 5.33355,-3.47943 -1.22078,-6.96515 -2.475,-1.31624 -4.725,-2.61817 -5,-2.89317 -4.74463,-4.74463 -8.62903,-4.3298 -9.41299,1.00524 -0.32285,2.19711 -0.85156,5.79475 -1.17491,7.99475 l -0.5879,4 h 6.25035 c 5.3019,0 6.99328,-0.47673 11.14623,-3.14167 z m -18.19633,-2.10833 c 0.0134,-2.33749 0.47218,-6.19131 1.01943,-8.56404 1.33518,-5.78908 -1.59621,-8.66872 -3.42729,-3.36678 -0.31927,0.92446 -1.87132,3.93083 -3.44899,6.68083 l -2.8685,4.99999 3.10045,2.20096 c 4.60402,3.26832 5.59686,2.92396 5.6249,-1.95096 z m -71.18235,-16.1118 c 3.4764,-3.93951 3.67728,-5.45982 0.50528,-3.82415 -1.78501,0.92046 -3.15954,1.51206 -10.08134,4.33914 -3.94444,1.61102 -4.15943,2.17267 -2.98979,7.81073 l 0.92605,4.46391 4.14885,-4.50116 c 2.28187,-2.47563 5.6528,-6.20546 7.49095,-8.28847 z m 96.83657,7.9235 c 1.13223,-4.94784 0.90179,-5.56841 -2.67867,-7.21362 -14.55525,-6.68812 -15.21033,-6.59535 -8.3923,1.18852 2.69077,3.07192 5.76766,6.68289 6.83755,8.02437 2.64734,3.31935 3.06106,3.12396 4.23342,-1.99927 z m -68.50977,-3.56169 c 0.69246,-1.375 2.06274,-3.69447 3.04506,-5.15437 0.98232,-1.4599 1.78604,-3.3724 1.78604,-4.25 0,-0.8776 0.45,-1.59563 1,-1.59563 0.55,0 1,-0.9 1,-2 0,-2.622135 -1.53985,-2.426116 -7,0.89108 l -4.5,2.73388 -0.25492,8.43752 -0.25493,8.43751 1.95986,-2.5 c 1.07792,-1.375 2.52642,-3.62499 3.21889,-4.99999 z m -42.70626,2.75 c -0.85491,-3.9905 -0.80842,-3.93828 -2.81951,-3.16655 -2.14324,0.82244 -2.07245,1.57861 0.39583,4.22799 2.76584,2.96877 3.24239,2.76007 2.42368,-1.06144 z m 116.57998,-3.14419 c -2.53891,-1.13289 -2.85644,-0.83298 -3.67087,3.46711 l -0.64908,3.42708 3.19086,-2.9871 3.19086,-2.9871 z m -81.04262,-0.60581 c 0,-6.34106 -0.8987,-7.30664 -4.10222,-4.40749 l -1.7597,1.5925 2.04072,3.6575 c 2.83326,5.07795 2.88539,5.15748 3.38022,5.15748 0.24254,0 0.44098,-2.69999 0.44098,-5.99999 z m 39.99317,-1.30902 -0.007,-6.19098 -3.30504,-2.25 c -1.81762,-1.2375 -3.83954,-2.25 -4.49301,-2.25 -0.65347,0 -1.18812,-0.45 -1.18812,-1 0,-0.550005 -0.675,-1.000005 -1.5,-1.000005 -2.16882,0 -1.93948,0.869335 2.51271,9.524715 6.49835,12.63325 7.99156,13.22568 7.98046,3.16627 z m 24.74096,2.88162 c -1.77877,-1.83093 -4.49081,-4.95879 -6.02676,-6.95079 -3.49002,-4.52626 -4.70737,-4.57537 -4.70737,-0.1899 0,3.66704 2.17856,5.82198 8.75,8.65514 1.7875,0.77064 3.25,1.76788 3.25,2.21608 0,0.4482 0.44286,0.5412 0.98413,0.20668 0.54127,-0.33452 -0.47123,-2.10626 -2.25,-3.93721 z m -82.73413,0.0154 c 4.93478,-2.85663 6,-4.09185 6,-6.95758 0,-4.33312 -1.6999,-3.84455 -6.67542,1.91857 -7.80929,9.04546 -7.6967,9.88543 0.67542,5.03901 z m 62.02224,2.16197 c 0.0122,-0.6875 0.90222,-2.37501 1.97776,-3.75 2.49923,-3.19509 2.47652,-3.60622 -0.25,-4.52467 -3.88159,-1.30756 -4.10024,-1.10008 -4.50459,4.27467 -0.32184,4.278 -0.1034,5.24999 1.17981,5.24999 0.86613,0 1.58479,-0.56249 1.59702,-1.24999 z m -82.74489,-5 1.65961,-1.25 -2.05721,-9.5 c -2.46165,-11.367672 -3.25976,-12.519305 -4.70327,-6.7866 -0.84817,3.368383 -0.76625,5.90804 0.36494,11.31456 0.80222,3.8342 1.45858,7.08396 1.45858,7.22166 0,0.66522 1.79308,0.11831 3.27735,-0.99962 z m 123.71081,-4.5 c 0.62147,-3.1625 1.32669,-6.34492 1.56715,-7.07204 0.65237,-1.97266 -1.69719,-10.436916 -2.6351,-9.492899 -0.44531,0.448214 -1.75815,5.078701 -2.91742,10.289969 l -2.10776,9.47505 1.74362,1.27495 c 2.76257,2.02004 3.15184,1.61954 4.34951,-4.47503 z m -115.98816,1.09484 c 1.375,-0.58347 4.45503,-2.02476 6.8445,-3.20285 2.38948,-1.17809 4.92883,-2.14199 5.64301,-2.14199 1.09288,0 3.1151,-3.0221 2.28603,-3.41633 -0.15045,-0.0715 -2.29854,-1.198925 -4.77354,-2.50529 -2.475,-1.306365 -6.3,-3.321596 -8.5,-4.478292 -2.2,-1.156695 -5.11263,-2.88991 -6.47251,-3.851588 -4.60463,-3.256303 -5.68567,-1.551036 -3.01216,4.751495 0.46661,1.1 1.07678,3.35 1.35593,5 1.4592,8.625075 2.3896,11.733935 3.37168,11.266235 0.41638,-0.1983 1.88206,-0.83792 3.25706,-1.42139 z m 109.41978,-3.09484 c 0.35123,-2.0625 0.87836,-5.32501 1.17142,-7.250005 0.29305,-1.925 0.91735,-4.4 1.38734,-5.5 0.46999,-1.1 1.07513,-3.013157 1.34475,-4.251459 l 0.49023,-2.251459 -3.15676,1.751459 c -1.73622,0.963302 -3.38176,1.979208 -3.65676,2.257567 -0.44423,0.449661 -9.70241,5.377762 -15.7422,8.379524 -2.68206,1.332983 -2.93523,3.453843 -0.5078,4.253943 2.76316,0.91076 10.59938,4.31803 12.25,5.32642 3.50763,2.14289 5.75421,1.19243 6.41978,-2.71599 z m -80.8846,0.13499 2.46482,-1.61501 v -6.884995 c 0,-8.052079 -0.52071,-8.324011 -5.04561,-2.63499 -1.85919,2.3375 -3.7345,4.4 -4.16737,4.583333 -1.11426,0.471927 -0.97596,3.945112 0.24816,6.232402 1.26193,2.35793 3.24029,2.4551 6.5,0.31926 z m 53.07277,-0.13499 c 2.18877,-2.88335 1.60047,-5.02469 -2.60795,-9.492552 -2.2,-2.335628 -4,-4.613097 -4,-5.061042 0,-0.447945 -0.45,-0.53633 -1,-0.196411 -2.22654,1.376078 -1.1852,14.105055 1.25,15.279515 3.26997,1.57704 4.85933,1.44468 6.35795,-0.52951 z M 210.25067,85.932048 c -0.61638,-1.606272 -11.60122,3.367939 -11.60122,5.253326 0,0.654136 2.5875,2.810124 5.75,4.791081 l 5.75,3.601745 0.30147,-6.169337 c 0.16581,-3.393139 0.0757,-6.757706 -0.20025,-7.476815 z m -30.85122,9.567205 c 6.4885,-3.721115 6.56031,-5.021689 0.43025,-7.792131 -7.016,-3.170832 -7.18025,-3.071969 -7.18025,4.321743 0,7.501725 -0.14733,7.425975 6.75,3.470388 z m -15.59147,-5.220388 c 1.82963,-2.3375 3.66744,-4.4 4.08403,-4.583333 2.76365,-1.216226 -0.41341,-2.166667 -7.24256,-2.166667 -8.72219,0 -9.44191,0.599769 -6,5 1.07554,1.375 1.96553,3.025 1.97776,3.666667 0.0201,1.053126 1.42299,2.045128 3.18821,2.254386 0.36628,0.04342 2.16294,-1.833553 3.99256,-4.171053 z m 61.45971,3.484687 c 0.91623,-0.601967 5.38176,-8.835201 5.38176,-9.922516 0,-0.171694 -3.6,-0.312171 -8,-0.312171 -9.32282,0 -9.19322,-0.20273 -3.90688,6.11122 4.2511,5.077477 4.67007,5.34224 6.52512,4.123467 z m -70.61824,-0.687634 c 0,-1.275831 -2.43359,-5.547053 -3.16052,-5.547053 -0.46171,0 -0.83948,-0.659167 -0.83948,-1.464816 0,-2.18026 -2.86453,-3.283232 -8.82792,-3.399139 -7.0334,-0.136705 -6.45431,1.156933 2.89035,6.456804 6.83965,3.87914 9.93757,5.111817 9.93757,3.954204 z m 82.66498,-3.650042 c 4.30926,-2.256643 8.73502,-4.99165 9.83502,-6.077793 l 2,-1.974805 -6,0.659707 c -8.57799,0.943161 -8.99684,1.137162 -11.88823,5.506354 -4.68722,7.082869 -4.17469,7.242606 6.05321,1.886537 z m -44.66498,1.602989 c 0,-0.825 -0.45,-1.5 -1,-1.5 -0.55,0 -1,0.675 -1,1.5 0,0.825 0.45,1.5 1,1.5 0.55,0 1,-0.675 1,-1.5 z m -7.46728,-13.767459 c -2.26268,-5.415333 -4.67093,-4.556015 -9.99234,3.565486 l -1.60627,2.45148 1.78294,0.60058 c 0.98062,0.33032 3.80795,1.460526 6.28295,2.51157 l 4.5,1.910988 0.29614,-3.653781 c 0.16287,-2.00958 -0.40567,-5.333425 -1.26342,-7.386323 z m 19.21728,7.866207 c 5.13309,-2.193225 5.23581,-3.13166 0.86513,-7.903331 -4.21803,-4.605017 -5.20398,-4.615192 -7.10171,-0.07329 -2.20846,5.285599 -2.06793,11.554385 0.23658,10.552979 0.9625,-0.418246 3.6625,-1.577606 6,-2.576355 z m -10.95667,-3.639425 c 1.6062,-2.571939 0.78192,-3.959323 -2.35235,-3.959323 -2.72239,0 -3.04122,1.065996 -1.20043,4.013569 1.5533,2.487239 1.96957,2.480884 3.55278,-0.05425 z m -47.33209,-3.719775 c -0.85628,-2.056752 -1.98535,-3.889548 -2.50905,-4.072881 -0.52371,-0.183334 -0.95219,-0.970834 -0.95219,-1.75 0,-2.278886 -1.20802,-1.701578 -6.97499,3.333333 l -5.44063,4.75 6.45781,0.5 c 3.55179,0.275 7.47438,0.607796 8.71686,0.739548 l 2.25906,0.239547 z m 17.52055,3.010452 c -0.017,-0.698598 -14.9929,-8.25 -16.3614,-8.25 -1.19665,0 -0.59433,2.530476 1.36865,5.75 l 1.98156,3.25 h 6.5147 c 3.58309,0 6.50651,-0.3375 6.49649,-0.75 z m 12.23386,-3.962408 c 7.30924,-7.199334 7.17341,-7.287592 -11.21565,-7.287592 -18.5711,0 -18.8241,0.189925 -7.32643,5.5 4.76356,2.2 9.59824,4.518378 10.74372,5.151952 1.14549,0.633573 2.29225,1.196073 2.54836,1.25 0.25611,0.05393 2.61861,-2.022536 5.25,-4.61436 z m 44.37572,0.852163 c 4.34975,-2.123134 9.37113,-4.482984 11.15863,-5.244111 5.69154,-2.423488 3.62219,-2.895644 -12.69098,-2.895644 -18.48116,0 -18.31643,-0.09016 -12.21703,6.686688 5.6306,6.25598 4.21581,6.106461 13.74938,1.453067 z m 14.15863,0.361891 c 4.30668,-6.648746 2.69074,-6.788736 -9,-0.779676 -3.7125,1.908231 -6.75,3.651428 -6.75,3.873771 0,0.222342 3.0375,0.398689 6.75,0.39188 l 6.75,-0.01238 2.25,-3.473597 z m 17.25,1.365376 c 0,-0.8186 -8.99669,-8.872811 -9.89079,-8.854643 -1.00109,0.02034 -5.10921,6.838199 -5.10921,8.479279 0,1.244403 1.35867,1.479192 7.5,1.29606 4.125,-0.123006 7.5,-0.537319 7.5,-0.920696 z m -63,-4.260033 c 0,-1.44118 -2.8855,-3.054821 -3.80979,-2.130528 -0.28795,0.287947 0.001,0.523539 0.64312,0.523539 0.64167,0 1.16667,0.675 1.16667,1.5 0,0.825 0.45,1.5 1,1.5 0.55,0 1,-0.626855 1,-1.393011 z m 8,0.474798 c 0,-0.505016 0.31232,-1.742516 0.69405,-2.75 l 0.69404,-1.831787 -1.69404,1.678571 c -1.88003,1.862848 -2.23574,3.821429 -0.69405,3.821429 0.55,0 1,-0.413196 1,-0.918213 z m -2.22251,-3.638491 c 2.82406,-1.978043 2.81592,-3.579815 -0.0275,-5.412084 -5.06659,-3.264869 -10.40432,1.873287 -5.5,5.294364 2.84297,1.983158 2.86358,1.983597 5.52749,0.11772 z m -53.31587,-5.693296 c 1.11258,-3.486835 1.44217,-17.75 0.41016,-17.75 -0.61048,0 -5.13414,2.551083 -10.05257,5.669073 l -8.9426,5.669074 2.97411,2.974108 c 3.82075,3.820756 14.72265,6.221511 15.6109,3.437745 z m 9.53838,-0.453921 c 1.375,-0.245701 3.4,-0.825162 4.5,-1.287692 1.1,-0.46253 4.1375,-1.426876 6.75,-2.142991 2.6125,-0.716114 4.75,-1.542057 4.75,-1.835428 0,-0.293371 -2.1375,-1.645797 -4.75,-3.005392 -2.6125,-1.359594 -6.9073,-3.721321 -9.54401,-5.248282 -7.72004,-4.470816 -8.28651,-4.124121 -8.56423,5.241539 -0.26051,8.785247 0.22449,10.47181 2.70939,9.421745 0.90687,-0.383224 2.77385,-0.897798 4.14885,-1.143499 z m 26.45,0.7664 c -3.56883,-3.521944 -11.97321,-4.611831 -14.9,-1.932242 -0.5225,0.47837 -2.21,0.869763 -3.75,0.869763 -1.54,0 -2.8,0.45 -2.8,1 0,0.607143 4.4,1 11.2,1 6.97794,0 10.84188,-0.353417 10.25,-0.937521 z m 50.55,-0.06248 c 0,-0.55 -1.32344,-1 -2.94098,-1 -1.61754,0 -3.18837,-0.40028 -3.49073,-0.889512 -1.62245,-2.625177 -15.56829,-0.721265 -15.56829,2.125412 0,0.420255 4.95,0.7641 11,0.7641 6.66667,0 11,-0.393939 11,-1 z m 11.5369,-8.409202 c 0.0435,-10.304501 -0.0594,-10.421046 -6.24941,-7.073049 -2.63312,1.424191 -7.37499,3.986559 -10.53749,5.69415 -7.28766,3.934973 -7.27314,3.983283 2,6.651583 4.2625,1.226514 8.875,2.60844 10.25,3.070948 4.16702,1.401657 4.49831,0.792398 4.5369,-8.343632 z m 12.69198,8.031602 c 2.8882,-0.247761 7.77112,-4.13703 7.77112,-6.189725 0,-1.067405 -2.82778,-2.821451 -3.8882,-2.411814 -0.2135,0.08248 -0.6635,-0.25975 -1,-0.760506 -0.77483,-1.153085 -12.76511,-9.260355 -13.69564,-9.260355 -0.89899,0 0.0833,17.381137 1.07281,18.982152 0.48991,0.792689 1.84833,0.984029 3.88231,0.54684 1.7208,-0.369873 4.35672,-0.777839 5.8576,-0.906592 z m -66.84466,-3.037275 c 1.8883,-3.50636 1.40128,-6.770627 -0.69709,-4.672257 -0.59792,0.597922 -2.26112,1.087132 -3.696,1.087132 -2.56979,0 -6.96119,2.409428 -5.98956,3.286293 1.05566,0.952695 6.54828,3.635583 7.52103,3.673669 0.56242,0.02202 1.85016,-1.496656 2.86162,-3.374837 z m 19.60892,1.678975 c 5.42503,-2.350297 4.19211,-5.2641 -2.2274,-5.2641 -1.30116,0 -2.85495,-0.48921 -3.45287,-1.087132 -2.09837,-2.09837 -2.58539,1.165897 -0.69709,4.672257 1.01146,1.878181 1.95861,3.414875 2.10476,3.414875 0.14616,0 2.06883,-0.781155 4.2726,-1.7359 z m -15.99314,-1.2641 c 0,-0.55 -0.45,-1 -1,-1 -0.55,0 -1,0.45 -1,1 0,0.55 0.45,1 1,1 0.55,0 1,-0.45 1,-1 z m 8,0 c 0,-0.55 -0.45,-1 -1,-1 -0.55,0 -1,0.45 -1,1 0,0.55 0.45,1 1,1 0.55,0 1,-0.45 1,-1 z M 193.23824,59.0311 c 0.77656,-3.094037 -0.17231,-5.806056 -1.83932,-5.257066 -1.40234,0.461829 -2.1952,4.150886 -1.35994,6.327556 0.85621,2.231242 2.50942,1.67807 3.19926,-1.07049 z m -15.45481,-0.660524 c 4.71991,-1.41412 4.92553,-2.458223 0.61602,-3.128038 -1.7875,-0.277827 -4.2625,-0.829543 -5.5,-1.226038 -2.00625,-0.642801 -2.25,-0.383263 -2.25,2.395733 0,3.525397 0.99342,3.7981 7.13398,1.958343 z m 34.86602,-1.958343 c 0,-2.77393 -0.24741,-3.039242 -2.25,-2.412828 -1.2375,0.387092 -3.825,1.045512 -5.75,1.463156 -2.95048,0.64013 -3.18599,0.873278 -1.5,1.484978 1.1,0.399095 2.675,1.116696 3.5,1.594669 3.50717,2.031917 6,1.146973 6,-2.129975 z m -44,-0.222853 c 0,-2.559994 -3.3749,-4.660515 -7.48804,-4.660515 -1.31666,0 -2.67204,-0.45 -3.01196,-1 -0.33992,-0.55 -1.49148,-1 -2.55902,-1 -1.06754,0 -1.94098,0.45 -1.94098,1 0,0.55 0.675,1 1.5,1 0.825,0 1.5,0.397516 1.5,0.883369 0,0.485852 0.7875,1.148542 1.75,1.472643 0.9625,0.324102 3.31798,1.501586 5.2344,2.616632 4.43798,2.582185 5.0156,2.546239 5.0156,-0.312129 z m 54,-1.659081 c 0,-0.345478 1.575,-1.246123 3.5,-2.001434 4.00483,-1.571372 4.75856,-3.543553 1,-2.616577 -1.375,0.339117 -3.7375,0.875473 -5.25,1.191902 -5.96119,1.247135 -9.01733,4.324016 -6.6481,6.693238 0.67712,0.677128 7.3981,-2.29097 7.3981,-3.267129 z M 124.90219,56.3936 c 1.1667,-0.624395 3.02197,-1.974395 4.12282,-3 1.10086,-1.025604 2.39058,-1.864735 2.86606,-1.864735 0.47547,0 2.45883,-1.083381 4.40746,-2.407514 l 3.54298,-2.407514 -3.34603,-1.509561 c -1.84032,-0.830259 -5.14603,-2.090735 -7.34603,-2.801059 -2.2,-0.710324 -4.45,-1.585591 -5,-1.945038 -0.55,-0.359446 -2.18788,-0.936707 -3.63973,-1.282802 l -2.63972,-0.629262 1.86405,8.241375 c 1.02523,4.532756 1.87561,8.803875 1.88973,9.491375 0.0317,1.542093 0.57579,1.561136 3.27841,0.114735 z m 136.77293,-0.114735 c 0.0141,-0.6875 0.874,-5.001212 1.91083,-9.586027 l 1.88515,-8.336026 -2.66082,0.659965 c -1.46346,0.362981 -2.81083,1.076693 -2.99416,1.586026 -0.18334,0.509334 -1.61928,0.926062 -3.19099,0.926062 -1.5717,0 -3.13576,0.45 -3.47568,1 -0.33992,0.55 -1.60398,1.010006 -2.80902,1.022236 -2.31182,0.02346 -8.11901,3.917318 -5.89917,3.955528 0.7105,0.01223 2.25785,0.922236 3.43856,2.022236 1.18072,1.1 2.7369,2 3.45819,2 0.72129,0 1.31144,0.45 1.31144,1 0,0.55 0.49152,1 1.09227,1 0.60075,0 2.23644,0.9 3.63486,2 2.92356,2.299677 4.26192,2.53319 4.29854,0.75 z m -79.02567,-3.666667 c 0,-0.504166 -0.3375,-1.066666 -0.75,-1.25 -0.4125,-0.183333 -2.77298,-2.808333 -5.2455,-5.833333 -4.95884,-6.066856 -5.69445,-6.856467 -8.29028,-8.898881 l -1.77793,-1.398881 1.03186,2.713981 c 0.56752,1.492689 1.03874,4.372185 1.04716,6.398881 0.0188,4.532739 0.98532,6.148938 4.64448,7.76674 3.3623,1.48655 9.34021,1.807515 9.34021,0.501493 z m 26.929,-0.328 c 4.42677,-1.542946 5.03646,-2.358394 5.05569,-6.761935 0.008,-1.928631 0.44482,-5.004229 0.96979,-6.834662 l 0.95447,-3.328061 -1.70447,1.332767 c -2.10468,1.645694 -4.46411,4.184537 -8.55358,9.204014 -1.733,2.1271 -3.7134,4.457457 -4.4009,5.178571 -2.66283,2.793026 1.33083,3.421955 7.679,1.209306 z m -16.56737,-2.255333 c 0.33001,-0.859994 0.0201,-1.5 -0.72635,-1.5 -0.71607,0 -1.30195,0.675 -1.30195,1.5 0,0.825 0.32686,1.5 0.72635,1.5 0.39949,0 0.98536,-0.675 1.30195,-1.5 z m -26.60464,-5.75 c -0.26987,-2.8875 -0.98872,-6.485578 -1.59746,-7.995728 l -1.10678,-2.745728 -8.02637,5.095813 c -4.41451,2.802698 -8.02638,5.510423 -8.02638,6.017167 0,1.633957 9.63526,4.518439 15.87383,4.752108 l 3.37383,0.126368 z m 61.74301,3.506516 c 2.2,-0.49849 5.08446,-1.489477 6.4099,-2.202192 l 2.40991,-1.295847 -1.90991,-1.013738 c -1.05044,-0.557556 -4.98685,-3.013765 -8.74756,-5.458243 -3.76072,-2.444478 -6.95641,-4.296453 -7.10155,-4.1155 -1.11707,1.392763 -2.56079,7.923136 -2.56079,11.583263 v 4.455812 l 3.75,-0.523605 c 2.0625,-0.287982 5.55,-0.93146 7.75,-1.42995 z M 124.10695,28.499418 C 106.35999,10.764816 105.79389,10.741519 113.43085,28.060046 l 3.7186,8.432751 3.26105,0.631397 c 1.79357,0.347268 3.50763,1.030384 3.80901,1.518034 0.30139,0.48765 1.57142,0.886637 2.82229,0.886637 1.25087,0 2.59614,0.321819 2.98947,0.715152 0.95827,0.95827 6.99845,2.993505 7.57568,2.55262 0.25162,-0.19219 -5.82338,-6.625939 -13.5,-14.297219 z m 18.5425,4.529447 c 0,-8.481481 -0.19298,-9.5 -1.8,-9.5 -0.99,0 -2.2275,-0.358136 -2.75,-0.795859 -0.5225,-0.437722 -2.75,-1.367467 -4.95,-2.0661 -2.2,-0.698633 -4.9,-1.634467 -6,-2.07963 -1.1,-0.445163 -3.25867,-1.315418 -4.79705,-1.933899 -1.53838,-0.618482 -3.92744,-1.124512 -5.30902,-1.124512 -1.38158,0 -2.26565,-0.398543 -1.9646,-0.885651 0.30105,-0.487108 -0.57602,-1.100399 -1.94905,-1.36287 -1.81637,-0.347221 1.65044,3.571542 12.72654,14.385651 8.37262,8.174579 15.57625,14.86287 16.00807,14.86287 0.43181,0 0.78511,-4.275 0.78511,-9.5 z m 6.20559,7.893687 c 1.70844,-0.883473 4.02095,-2.458473 5.1389,-3.5 1.11795,-1.041528 2.62278,-1.893687 3.34407,-1.893687 0.72129,0 1.31144,-0.45 1.31144,-1 0,-0.55 0.675,-1 1.5,-1 2.35328,0 1.75375,-2.794147 -0.75,-3.495463 -1.2375,-0.346631 -3.15,-0.995925 -4.25,-1.442876 -11.00524,-4.471635 -10.5,-4.733319 -10.5,5.438339 0,4.675 0.24735,8.5 0.54966,8.5 0.30231,0 1.94748,-0.722841 3.65593,-1.606313 z m 89.79441,-6.893687 c 0,-9.243567 -0.25052,-9.567554 -5.70295,-7.375488 -1.53838,0.618481 -3.92205,1.570632 -5.29705,2.11589 -4.30718,1.708017 -5.36899,2.366576 -5.77381,3.581041 -0.21607,0.648206 0.11364,1.178557 0.73268,1.178557 0.61905,0 1.66905,0.469271 2.33334,1.042825 2.05699,1.776038 12.09642,7.957175 12.92407,7.957175 0.43105,0 0.78372,-3.825 0.78372,-8.5 z m 18.98697,-6.580508 c 12.41986,-12.090714 14.89542,-14.931334 12.5,-14.343311 -1.64283,0.40328 -3.13697,1.113617 -3.3203,1.578528 -0.18334,0.46491 -1.33084,0.845291 -2.55,0.845291 -1.21917,0 -2.64417,0.371754 -3.16667,0.82612 -0.5225,0.454366 -2.975,1.435423 -5.45,2.180127 -2.475,0.744704 -4.95,1.641893 -5.5,1.993753 -0.55,0.35186 -2.9125,1.24283 -5.25,1.979933 l -4.25,1.340186 v 9.339941 c 0,5.136967 0.3375,9.339049 0.75,9.33796 0.4125,-0.0011 7.71914,-6.786427 16.23697,-15.078528 z m 0.31022,11.418615 7.83319,-2.661893 2.44092,-4.816909 c 3.21657,-6.347612 6.66887,-15.645297 6.25662,-16.850294 -0.18035,-0.527187 -6.62549,5.330117 -14.32251,13.016233 -15.30658,15.284888 -15.40674,15.798015 -2.20822,11.312863 z M 155.24073,24.162504 c -1.5998,-1.173501 -4.11305,-3.283389 -5.585,-4.68864 -3.20627,-3.060983 -5.00783,-2.741035 -5.002,0.888334 0.004,2.385081 0.6638,2.882424 6.25,4.709926 7.21338,2.359824 8.44265,2.102005 4.337,-0.90962 z m 72.95872,2.540241 c 0.5225,-0.454366 2.91032,-1.442174 5.30626,-2.195129 4.76234,-1.496624 5.4557,-2.416061 4.96831,-6.588257 l -0.32457,-2.778451 -3,2.813806 c -1.65,1.547593 -4.4625,3.938293 -6.25,5.312667 -3.09606,2.3805 -4.17747,4.261484 -2.45,4.261484 0.44,0 1.2275,-0.371754 1.75,-0.82612 z m -85.55,-8.138696 c 0,-1.814629 -0.67891,-3.31344 -1.75,-3.863458 -2.59853,-1.334369 -19.25,-2.277944 -19.25,-1.090823 0,1.135054 4.1328,2.900481 5.25,2.242667 0.4125,-0.242882 0.75,-0.04639 0.75,0.436642 0,0.483036 2.27852,1.498706 5.06337,2.257044 2.78485,0.758339 5.28641,1.739686 5.55902,2.180771 1.36233,2.204306 4.37761,0.714551 4.37761,-2.162843 z m 102.70295,1.840304 c 1.53838,-0.618481 3.69705,-1.488736 4.79705,-1.933899 1.1,-0.445163 3.8,-1.380997 6,-2.07963 2.2,-0.698633 4.4275,-1.628378 4.95,-2.0661 0.5225,-0.437723 1.76,-0.795859 2.75,-0.795859 0.99,0 1.8,-0.501075 1.8,-1.113499 0,-0.711396 -1.17363,-0.899066 -3.25,-0.519692 -1.7875,0.326594 -7.32813,0.888751 -12.3125,1.249237 l -9.0625,0.655429 -0.22801,3.864263 c -0.24564,4.163134 0.25967,4.467006 4.55596,2.73975 z M 120.64945,12.595748 c 0,-0.513214 -1.37701,-0.893965 -3.06002,-0.846113 -2.03114,0.05775 -2.61955,0.366347 -1.75,0.917804 1.77444,1.125333 4.81002,1.080089 4.81002,-0.07169 z m 17.47251,-1.400677 C 129.27264,5.211233 120.64607,1.528865 115.47723,1.528865 h -5.426 l -1.29269,3.574867 c -1.70521,4.715676 -1.77578,4.695472 20.77395,5.947833 4.06066,0.225521 7.62316,0.650172 7.91666,0.943669 0.2935,0.293497 1.00876,0.533631 1.58947,0.533631 0.58071,0 0.16821,-0.600207 -0.91666,-1.333794 z M 266.89945,9.888338 c 4.8125,-0.332261 8.75,-0.854619 8.75,-1.160794 0,-0.306176 -0.5404,-2.051132 -1.20089,-3.877681 l -1.20089,-3.320998 h -5.38325 c -4.40472,0 -6.77668,0.750761 -13.04911,4.130237 -10.56897,5.694385 -10.86375,6.202799 -3.16586,5.460302 3.575,-0.344825 10.4375,-0.898805 15.25,-1.231066 z"
       id="path1486"
       inkscape:export-xdpi="384"
       inkscape:export-ydpi="384" />
  </g>
</svg>
